<svg width="24" height="24" viewBox="0 0 24 24" fill="none" xmlns="http://www.w3.org/2000/svg">
<path d="M21.038 4.89999L13.461 0.401993C13.0187 0.139268 12.5138 0.000693928 11.9993 0.000869918C11.4849 0.00104591 10.9801 0.139965 10.538 0.402993L2.96098 4.89999C2.51301 5.17034 2.14288 5.55232 1.88679 6.00859C1.6307 6.46486 1.49741 6.97978 1.49998 7.50299V16.498C1.49998 17.571 2.05698 18.564 2.96198 19.101L10.539 23.598C10.981 23.8607 11.4858 23.9993 12 23.9993C12.5142 23.9993 13.0189 23.8607 13.461 23.598L21.038 19.101C21.4861 18.8308 21.8565 18.4488 22.1127 17.9926C22.369 17.5363 22.5024 17.0213 22.5 16.498V7.50299C22.5026 6.97964 22.3693 6.46458 22.113 6.00827C21.8567 5.55197 21.4863 5.17007 21.038 4.89999V4.89999ZM15.17 18.946L15.183 19.592C15.184 19.67 15.133 19.759 15.072 19.79L14.689 20.01C14.628 20.041 14.578 20.003 14.577 19.925L14.57 19.29C14.242 19.426 13.91 19.459 13.698 19.374C13.658 19.358 13.641 19.299 13.657 19.232L13.796 18.648C13.8065 18.6017 13.8305 18.5596 13.865 18.527C13.8757 18.5167 13.8878 18.508 13.901 18.501C13.923 18.49 13.944 18.487 13.963 18.495C14.192 18.572 14.484 18.536 14.765 18.394C15.122 18.213 15.361 17.849 15.357 17.487C15.354 17.159 15.176 17.022 14.744 17.019C14.194 17.02 13.68 16.912 13.672 16.102C13.665 15.435 14.012 14.741 14.561 14.302L14.554 13.65C14.553 13.57 14.602 13.482 14.665 13.45L15.035 13.214C15.096 13.183 15.146 13.221 15.147 13.301L15.153 13.954C15.426 13.845 15.664 13.816 15.879 13.866C15.926 13.878 15.946 13.942 15.927 14.017L15.783 14.595C15.7719 14.6387 15.7495 14.6788 15.718 14.711C15.7068 14.7221 15.6939 14.7316 15.68 14.739C15.6627 14.7487 15.6424 14.7519 15.623 14.748C15.525 14.726 15.291 14.675 14.924 14.861C14.539 15.056 14.404 15.391 14.407 15.639C14.41 15.936 14.562 16.026 15.088 16.035C15.788 16.047 16.091 16.353 16.098 17.058C16.105 17.747 15.736 18.491 15.17 18.946V18.946ZM19.143 17.859C19.143 17.919 19.135 17.975 19.085 18.004L17.169 19.168C17.119 19.197 17.079 19.172 17.079 19.112V18.618C17.079 18.558 17.116 18.525 17.166 18.496L19.053 17.367C19.103 17.338 19.143 17.363 19.143 17.423V17.859ZM20.459 6.79699L13.291 11.224C12.397 11.747 11.738 12.333 11.738 13.411V22.244C11.738 22.889 11.998 23.307 12.398 23.428C12.2667 23.4525 12.1335 23.4656 12 23.467C11.58 23.467 11.167 23.353 10.803 23.137L3.22598 18.64C2.85801 18.4169 2.55402 18.1024 2.34357 17.7271C2.13312 17.3517 2.02336 16.9283 2.02498 16.498V7.50299C2.02498 6.62199 2.48498 5.80099 3.22598 5.36099L10.803 0.862993C11.1651 0.64765 11.5786 0.533989 12 0.533989C12.4213 0.533989 12.8348 0.64765 13.197 0.862993L20.774 5.36099C21.0822 5.54772 21.3461 5.79942 21.5471 6.09855C21.7481 6.39767 21.8815 6.73704 21.938 7.09299C21.686 6.55699 21.12 6.41099 20.459 6.79699V6.79699Z" fill="black"/>
</svg>
