<svg width="24" height="24" viewBox="0 0 24 24" fill="none" xmlns="http://www.w3.org/2000/svg">
<g clip-path="url(#clip0_4446_6)">
<path d="M19.8479 1.63602C19.7419 1.62002 19.6199 1.74302 19.5239 2.03302C19.3669 2.50302 18.4509 5.23602 14.0199 6.35902C14.6159 6.87102 14.9959 7.60102 14.9959 8.41802C14.9959 9.96502 13.6519 11.218 11.9959 11.218C10.3409 11.218 8.99892 9.96402 8.99792 8.41802C8.99792 7.81502 9.20592 7.26002 9.55292 6.80202C6.41792 6.48002 5.06292 3.67902 5.06292 3.67902L4.96692 7.84202C4.94192 8.40602 4.95792 8.95302 4.69692 9.47802C4.68048 9.45387 4.66382 9.42987 4.64692 9.40602C4.27911 8.8942 3.81627 8.46718 3.31204 8.17445C2.8078 7.88171 2.28282 7.73524 1.79792 7.75202C1.41599 7.76521 1.06991 7.87932 0.784924 8.08602C0.276797 8.4537 -0.00560548 9.09167 -0.000167023 9.85962C0.00527144 10.6276 0.298106 11.4626 0.813924 12.181C1.24113 12.7756 1.79483 13.2534 2.3896 13.5408C2.98436 13.8281 3.58714 13.909 4.10492 13.771C7.10192 15.991 12.5869 17.919 16.3359 15.656L14.3109 14.027C13.2469 14.372 11.7069 14.367 9.91392 13.732C12.8139 14.314 14.3839 13.679 15.2479 13.01C15.0199 12.714 14.5379 12.484 14.5379 12.484C14.5379 12.484 15.1009 12.591 15.4679 12.98C15.6149 13.135 15.6659 13.367 15.6859 13.633C16.2389 13.931 16.8689 14.289 17.5609 14.695C19.6209 12.635 20.8139 8.76202 20.0809 2.07802C20.0459 1.80902 19.9539 1.65302 19.8479 1.63602V1.63602ZM6.85492 7.09602C7.90592 7.09502 8.75792 7.89102 8.75792 8.87302C8.75792 9.85302 7.90492 10.649 6.85492 10.648C5.80492 10.648 4.95492 9.85302 4.95492 8.87302C4.95492 7.89202 5.80492 7.09602 6.85492 7.09502V7.09602ZM12.6309 7.57802C12.4569 7.57789 12.2846 7.61203 12.1238 7.6785C11.963 7.74496 11.8168 7.84245 11.6937 7.9654C11.5706 8.08834 11.4729 8.23433 11.4062 8.39504C11.3395 8.55575 11.3051 8.72802 11.3049 8.90202C11.3048 9.07602 11.3389 9.24834 11.4054 9.40915C11.4719 9.56996 11.5694 9.7161 11.6923 9.83923C11.8152 9.96236 11.9612 10.0601 12.1219 10.1268C12.2827 10.1935 12.4549 10.2279 12.6289 10.228C12.9803 10.2283 13.3175 10.0889 13.5661 9.84064C13.8148 9.59234 13.9547 9.25543 13.9549 8.90402C13.9552 8.55261 13.8158 8.21548 13.5675 7.96681C13.3192 7.71814 12.9823 7.57828 12.6309 7.57802V7.57802ZM1.68892 8.21702C1.68959 8.21702 1.69026 8.21702 1.69092 8.21702C1.69792 8.21694 1.70492 8.21694 1.71192 8.21702C1.83877 8.21689 1.9644 8.24136 2.08161 8.28901C2.19882 8.33667 2.30529 8.40659 2.39494 8.49475C2.48459 8.58291 2.55565 8.68759 2.60403 8.80278C2.65242 8.91797 2.67719 9.04141 2.67692 9.16602C2.67692 9.29046 2.65196 9.41369 2.60345 9.52865C2.55494 9.64361 2.48384 9.74805 2.39422 9.836C2.3046 9.92395 2.19821 9.99368 2.08114 10.0412C1.96406 10.0887 1.8386 10.1131 1.71192 10.113C1.4566 10.1125 1.21192 10.0125 1.03157 9.83496C0.851213 9.65741 0.749924 9.41684 0.749924 9.16602C0.749047 8.91837 0.846956 8.68024 1.02267 8.50266C1.19838 8.32508 1.43791 8.22218 1.68992 8.21602L1.68892 8.21702ZM7.24792 8.34002C7.13761 8.34133 7.02864 8.36436 6.92723 8.40779C6.82582 8.45122 6.73396 8.51419 6.65688 8.59312C6.57981 8.67205 6.51904 8.76539 6.47804 8.8678C6.43704 8.97022 6.41661 9.07971 6.41792 9.19002C6.41924 9.30033 6.44226 9.4093 6.48569 9.51071C6.52912 9.61212 6.5921 9.70399 6.67103 9.78106C6.74996 9.85813 6.84329 9.9189 6.94571 9.9599C7.04812 10.0009 7.15761 10.0213 7.26792 10.02C7.49071 10.0174 7.70331 9.92632 7.85896 9.76692C8.01462 9.60751 8.10058 9.3928 8.09792 9.17002C8.09527 8.94724 8.00423 8.73463 7.84482 8.57898C7.68542 8.42332 7.47071 8.33737 7.24792 8.34002V8.34002ZM15.5079 13.304C15.4649 13.357 15.4049 13.403 15.3519 13.451L15.5619 13.566C15.5449 13.466 15.5289 13.356 15.5079 13.304ZM14.9579 13.404L14.2249 13.765L14.2849 13.815L14.4829 13.972L16.4769 15.578L16.4919 15.59C17.1349 16.1042 17.7857 16.6085 18.4439 17.103C18.4363 17.1449 18.4336 17.1875 18.4359 17.23L18.6959 17.19L18.7989 17.342L21.1159 18.814C20.9959 19.224 21.0509 19.767 21.3229 20.271C22.1129 21.736 23.9999 22.365 23.9999 22.365C23.2289 20.397 23.7909 18.796 22.2699 18.232C22.0279 18.142 21.8169 18.139 21.6409 18.199L19.5939 16.304L19.4199 16.252L19.3949 15.99C19.3534 16.0065 19.3133 16.0262 19.2749 16.049C18.9689 15.789 18.5879 15.512 18.1849 15.234C16.8209 14.399 15.9279 13.934 14.9569 13.404H14.9579Z" fill="#3E3A2D"/>
</g>
<defs>
<clipPath id="clip0_4446_6">
<rect width="24" height="24" fill="white"/>
</clipPath>
</defs>
</svg>
