<svg width="24" height="24" viewBox="0 0 24 24" fill="none" xmlns="http://www.w3.org/2000/svg">
<path d="M9.46067 17.6514C9.46067 17.6514 8.6626 18.1155 10.0286 18.2725C11.6836 18.4613 12.5294 18.4343 14.3532 18.089C14.3532 18.089 14.8327 18.3897 15.5023 18.6501C11.4139 20.4023 6.24941 18.5486 9.46067 17.6514M8.96107 15.3648C8.96107 15.3648 8.06595 16.0274 9.43303 16.1688C11.2009 16.3512 12.597 16.3661 15.0128 15.9009C15.0128 15.9009 15.347 16.2397 15.8724 16.4249C10.9293 17.8704 5.42353 16.5389 8.96107 15.3648" fill="#5382A1"/>
<path d="M13.1728 11.4861C14.1802 12.6459 12.9081 13.6896 12.9081 13.6896C12.9081 13.6896 15.466 12.3691 14.2913 10.7156C13.1941 9.1736 12.3527 8.40734 16.9076 5.7657C16.9076 5.7657 9.75792 7.55134 13.1728 11.486" fill="#E76F00"/>
<path d="M18.58 19.3426C18.58 19.3426 19.1706 19.8292 17.9295 20.2057C15.5697 20.9206 8.10746 21.1365 6.03447 20.2342C5.28931 19.9101 6.68674 19.4602 7.12629 19.3657C7.5847 19.2663 7.84672 19.2849 7.84672 19.2849C7.01799 18.7011 2.49021 20.4312 5.54685 20.9266C13.8826 22.2785 20.7422 20.3179 18.58 19.3426ZM9.84442 12.9957C9.84442 12.9957 6.04874 13.8973 8.50032 14.2246C9.53543 14.3632 11.5989 14.3319 13.521 14.1708C15.0919 14.0384 16.6692 13.7566 16.6692 13.7566C16.6692 13.7566 16.1153 13.9938 15.7146 14.2674C11.8601 15.2812 4.41384 14.8096 6.55752 13.7726C8.37044 12.8963 9.84448 12.9957 9.84448 12.9957M16.6536 16.8017C20.5719 14.7656 18.7602 12.809 17.4957 13.0726C17.1858 13.1371 17.0476 13.193 17.0476 13.193C17.0476 13.193 17.1627 13.0128 17.3824 12.9348C19.884 12.0552 21.8079 15.5287 16.5748 16.9044C16.5748 16.9044 16.6355 16.8502 16.6536 16.8017Z" fill="#5382A1"/>
<path d="M14.2912 1.50006C14.2912 1.50006 16.4612 3.67089 12.233 7.00882C8.84248 9.6865 11.4599 11.2132 12.2316 12.9576C10.2525 11.1719 8.80003 9.59997 9.77449 8.13699C11.2046 5.98932 15.1667 4.94811 14.2912 1.5" fill="#E76F00"/>
<path d="M10.2295 22.3191C13.9906 22.5599 19.7661 22.1855 19.9029 20.4059C19.9029 20.4059 19.64 21.0806 16.7946 21.6163C13.5844 22.2204 9.62516 22.1499 7.27686 21.7627C7.27692 21.7627 7.75758 22.1606 10.2295 22.3191" fill="#5382A1"/>
</svg>
