<svg width="24" height="24" viewBox="0 0 24 24" fill="none" xmlns="http://www.w3.org/2000/svg">
<path d="M10.05 8.09995L10.1 9.24995L9.30005 10.75L8.05005 13.2L7.80005 15.25L8.70005 18.15L10.75 19.2999H13.85L16.75 17.1L18.05 13.65L15.05 9.99995L14.2 7.94995L10.05 8.09995Z" fill="white"/>
<path d="M17.15 10.95C16.35 9.80002 15.7 9.10003 15.35 7.65003C15 6.20003 15.45 6.60002 15.15 5.35003C15 4.70003 14.75 4.25003 14.5 3.90003C14.2 3.55003 13.85 3.35003 13.65 3.30003C13.2 3.05003 12.15 2.65003 10.85 3.35003C9.50002 4.05003 9.65002 5.55003 9.90002 8.60003C9.90002 8.80003 9.85002 9.05002 9.75002 9.25002C9.55002 9.70003 9.20002 10.1 8.90002 10.45C8.55002 10.95 8.20002 11.45 7.95002 12C7.35002 13.15 6.80002 14.6 6.95002 15.15C7.20002 15.1 10.35 19.9 10.35 20C10.55 19.95 11.4 19.95 12.15 19.95C13.2 19.9 13.8 19.85 14.65 20.05C14.65 19.9 14.6 19.75 14.6 19.6C14.6 19.3 14.65 19.05 14.7 18.7C14.75 18.45 14.8 18.2 14.85 17.9C14.35 18.35 13.45 18.85 12.6 19C11.85 19.15 10.6 18.9 10 18.15C10.05 18.15 10.15 18.15 10.2 18.1C10.35 18.05 10.5 18 10.55 17.9C10.7 17.65 10.6 17.4 10.5 17.25C10.4 17.1 9.65002 16.55 9.30002 16.25C8.95002 15.95 8.75002 15.8 8.55002 15.6L8.15002 15.2C8.05002 15.1 8.00002 15 7.95002 14.95C7.85002 14.7 7.80002 14.4 7.85002 14C7.90002 13.45 8.10002 13 8.35002 12.5C8.45002 12.3 8.70002 11.9 8.70002 11.9C8.70002 11.9 7.85002 14 8.30002 14.65C8.30002 14.65 8.35002 14 8.55002 13.35C8.70002 12.9 8.95002 12.25 9.25002 11.9C9.55002 11.55 10.3 10.25 10.35 9.45002C10.35 9.10002 10.4 8.75003 10.4 8.50003C10.2 8.30002 13.7 7.80003 13.9 8.35003C13.95 8.55003 14.65 10.35 15.05 11.3C15.25 11.75 15.5 12.15 15.65 12.65C15.8 13.2 15.9 13.95 15.9 14.7C15.9 14.85 15.9 15.1 15.85 15.35C15.95 15.35 17.9 13.25 15.6 11.5C15.6 11.5 17 12.15 17.05 13.45C17.1 14.5 16.65 15.35 16.55 15.5C16.6 15.5 17.6 15.95 17.65 15.95C17.85 15.95 18.25 15.8 18.25 15.8C18.3 15.65 18.45 15.25 18.45 15.1C18.8 13.95 17.95 12.1 17.15 10.95Z" fill="#263238"/>
<path d="M10.8 7.6499C11.159 7.6499 11.45 7.20219 11.45 6.6499C11.45 6.09762 11.159 5.6499 10.8 5.6499C10.441 5.6499 10.15 6.09762 10.15 6.6499C10.15 7.20219 10.441 7.6499 10.8 7.6499Z" fill="white"/>
<path d="M13.05 7.74995C13.5194 7.74995 13.9 7.23508 13.9 6.59995C13.9 5.96482 13.5194 5.44995 13.05 5.44995C12.5805 5.44995 12.2 5.96482 12.2 6.59995C12.2 7.23508 12.5805 7.74995 13.05 7.74995Z" fill="white"/>
<path d="M11.1635 6.71832C11.122 6.38957 10.9328 6.14271 10.7411 6.16695C10.5493 6.19119 10.4275 6.47735 10.4691 6.8061C10.5106 7.13486 10.6998 7.38172 10.8915 7.35748C11.0833 7.33324 11.2051 7.04708 11.1635 6.71832Z" fill="#212121"/>
<path d="M13 7.45002C13.2761 7.45002 13.5 7.15901 13.5 6.80002C13.5 6.44104 13.2761 6.15002 13 6.15002C12.7239 6.15002 12.5 6.44104 12.5 6.80002C12.5 7.15901 12.7239 7.45002 13 7.45002Z" fill="#212121"/>
<path d="M19.65 17.8C19.45 17.7 19.1 17.55 18.8 17.1C18.65 16.85 18.7 16.15 18.45 15.85C18.3 15.65 18.1 15.75 18.05 15.75C17.6 15.85 16.55 16.55 15.85 15.75C15.75 15.65 15.6 15.5 15.35 15.5C15.1 15.5 15 15.6 14.9 15.8C14.8 16 14.8 16.15 14.8 16.65C14.8 17.05 14.8 17.5 14.75 17.85C14.65 18.7 14.5 19.2 14.5 19.7C14.5 20.25 14.65 20.6 14.85 20.75C15 20.9 15.25 21 15.8 21C16.35 21 16.7 20.8 17.05 20.45C17.3 20.2 17.5 20.1 18.2 19.6C18.75 19.25 19.6 18.8 19.75 18.65C19.85 18.55 20 18.5 20 18.2C20 17.95 19.8 17.85 19.65 17.8Z" fill="#FFC107"/>
<path d="M9.6 17.95C9.1 17.15 9.04999 17 8.69999 16.5C8.39999 16 7.74999 15.05 7.35 15.05C7.05 15.05 6.9 15.2 6.7 15.4C6.5 15.6 6.3 16.05 5.95 16.3C5.65 16.55 4.8 16.5 4.6 16.8C4.4 17.1 4.8 17.55 4.8 18.3C4.8 18.6 4.55 18.8 4.5 19C4.45 19.25 4.4 19.4 4.5 19.6C4.7 19.9 4.95 20 6.65 20.35C7.55 20.55 8.39999 21.05 8.94999 21.1C9.49999 21.15 10.45 21.1 10.45 19.75C10.5 18.95 10.05 18.75 9.6 17.95Z" fill="#FFC107"/>
<path d="M10.55 8.9C10.25 8.7 10 8.5 10 8.2C10 7.9 10.2 7.8 10.5 7.55C10.55 7.5 11.1 7 11.65 7C12.2 7 12.85 7.35 13.1 7.45C13.55 7.55 14 7.65 13.95 8C13.9 8.5 13.85 8.6 13.35 8.85C13 8.95 12.35 9.5 11.9 9.5C11.7 9.5 11.4 9.5 11.2 9.45C11.05 9.4 10.8 9.15 10.55 8.9Z" fill="#FFC107"/>
<path d="M10.45 8.49994C10.55 8.59994 10.7 8.69994 10.85 8.74994C10.95 8.79994 11.1 8.84995 11.1 8.84995H11.55C11.8 8.84995 12.15 8.74994 12.5 8.54994C12.85 8.39994 12.9 8.29994 13.15 8.19994C13.4 8.04994 13.65 7.89994 13.55 7.84994C13.45 7.79994 13.35 7.84994 13 8.04994C12.7 8.24994 12.45 8.34994 12.15 8.49994C12 8.54994 11.8 8.64994 11.65 8.64994H11.2C11.05 8.64994 10.95 8.59994 10.8 8.54994C10.7 8.49994 10.65 8.44994 10.6 8.44994C10.5 8.39994 10.3 8.19994 10.2 8.14994C10.2 8.14994 10.1 8.14994 10.15 8.19994L10.45 8.49994Z" fill="#634703"/>
<path d="M11.95 7.40003C12 7.50003 12.1 7.50003 12.15 7.55003C12.2 7.60003 12.25 7.60003 12.25 7.60003C12.3 7.55003 12.25 7.45003 12.2 7.45003C12.2 7.35003 11.95 7.35003 11.95 7.40003Z" fill="#634703"/>
<path d="M11.15 7.49998C11.15 7.54998 11.25 7.59998 11.25 7.54998C11.3 7.49998 11.35 7.44998 11.4 7.44998C11.5 7.39998 11.45 7.34998 11.3 7.34998C11.2 7.39998 11.2 7.44998 11.15 7.49998Z" fill="#634703"/>
<path d="M16 16.35V16.5C16.1 16.7 16.35 16.75 16.55 16.75C16.85 16.75 17.15 16.55 17.3 16.35C17.3 16.3 17.35 16.25 17.4 16.2C17.5 16.05 17.55 15.95 17.6 15.9C17.6 15.9 17.55 15.85 17.55 15.8C17.5 15.7 17.35 15.6 17.15 15.55C17 15.5 16.75 15.45 16.65 15.45C16.2 15.4 15.95 15.55 15.8 15.7C15.8 15.7 15.85 15.7 15.85 15.75C15.95 15.85 16 15.95 16 16.1C16.05 16.2 16 16.25 16 16.35Z" fill="#455A64"/>
</svg>
