<svg width="24" height="24" viewBox="0 0 24 24" fill="none" xmlns="http://www.w3.org/2000/svg">
<path d="M12 1.84998C11.7 1.84998 11.3889 1.91894 11.1333 2.04702L2.86667 6.28347C2.33333 6.55934 2 7.07165 2 7.62337V16.0766C2 16.6283 2.33333 17.1406 2.86667 17.4165L5.03333 18.5199C6.08889 18.9731 6.44444 18.983 6.93333 18.983C8.48889 18.983 9.38889 18.1455 9.38889 16.6874V8.34259C9.38889 8.22436 9.27778 8.12584 9.14445 8.12584H8.11111C7.96667 8.12584 7.85556 8.22436 7.85556 8.34259V16.6874C7.85556 17.3377 7.1 17.9781 5.88889 17.4362L3.61111 16.2835C3.5737 16.26 3.54311 16.2291 3.52186 16.1931C3.50061 16.1571 3.48931 16.1172 3.48889 16.0766V7.62337C3.48889 7.5347 3.53333 7.45589 3.61111 7.41648L11.8778 3.18988C11.9444 3.15047 12.0556 3.15047 12.1222 3.18988L20.3889 7.41648C20.4667 7.45589 20.5111 7.5347 20.5111 7.62337V16.0766C20.5111 16.1554 20.4667 16.2342 20.3889 16.2835L12.1222 20.5101C12.0556 20.5495 11.9444 20.5495 11.8667 20.5101L9.77778 19.3869C9.68889 19.3574 9.6 19.3475 9.54444 19.3771C8.95556 19.6726 8.84444 19.7317 8.3 19.8795C8.16667 19.9189 7.95556 19.9879 8.37778 20.1948L11.1333 21.6431C11.4 21.781 11.6889 21.85 12 21.85C12.3111 21.85 12.6 21.781 12.8667 21.6431L21.1333 17.4165C21.6667 17.1406 22 16.6283 22 16.0766V7.62337C22 7.07165 21.6667 6.55934 21.1333 6.28347L12.8667 2.04702C12.6111 1.91894 12.3111 1.84998 12 1.84998V1.84998ZM14.2222 7.90909C11.8667 7.90909 10.4556 8.78594 10.4556 10.2638C10.4556 11.85 11.8556 12.313 14.1222 12.5101C16.8222 12.7465 17.0333 13.1012 17.0333 13.5741C17.0333 14.3918 16.2889 14.7367 14.5556 14.7367C12.3556 14.7367 11.8889 14.2539 11.7222 13.2884C11.7105 13.2385 11.6799 13.1937 11.6354 13.1614C11.5909 13.1291 11.5353 13.1113 11.4778 13.1111H10.4111C10.2778 13.1111 10.1778 13.1997 10.1778 13.3278C10.1778 14.5495 10.9333 16.0273 14.5556 16.0273C17.1667 16.0273 18.6667 15.1111 18.6667 13.515C18.6667 11.9288 17.4667 11.515 14.9222 11.2096C12.3556 10.914 12.1 10.7564 12.1 10.2244C12.1 9.78101 12.3222 9.18988 14.2222 9.18988C15.8889 9.18988 16.5444 9.515 16.8 10.5298C16.8222 10.6283 16.9222 10.6973 17.0333 10.6973H18.1111C18.1667 10.6973 18.2333 10.6776 18.2778 10.6283C18.3222 10.5889 18.3556 10.5298 18.3333 10.4707C18.1778 8.71697 16.8667 7.90909 14.2222 7.90909Z" fill="#086A1F"/>
</svg>
