<svg width="24" height="23" viewBox="0 0 24 23" fill="none" xmlns="http://www.w3.org/2000/svg">
<path d="M0.75 3.77344C2.9505 7.774 6.83775 8.39787 11.5545 8.49059C14.3378 8.54666 20.4608 8.31881 20.4608 9.74841C20.4608 10.8208 16.383 14.1809 16.383 14.8688C16.383 14.8688 19.2105 12.5781 20.7892 11.2305C22.368 9.88281 23.25 9.08572 23.25 8.28791C23.25 6.66497 16.7025 6.96253 11.4142 6.96253C6.126 6.96253 3.23475 6.003 0.75 3.77344ZM6.65625 16.1942C5.78025 16.1942 5.0625 16.8597 5.0625 17.6992C5.0625 18.5387 5.78025 19.2266 6.65625 19.2266C7.53225 19.2266 8.22675 18.5387 8.22675 17.6992C8.22825 17.5012 8.18865 17.3048 8.11025 17.1216C8.03186 16.9383 7.91623 16.7718 7.7701 16.6318C7.62396 16.4917 7.45024 16.3809 7.25902 16.3058C7.0678 16.2307 6.86291 16.1927 6.65625 16.1942ZM13.9688 16.1942C13.7621 16.1927 13.5572 16.2307 13.366 16.3058C13.1748 16.3809 13.001 16.4917 12.8549 16.6318C12.7088 16.7718 12.5931 16.9383 12.5147 17.1216C12.4364 17.3048 12.3968 17.5012 12.3983 17.6992C12.3983 18.5387 13.0927 19.2266 13.9688 19.2266C14.391 19.2252 14.7956 19.0639 15.0942 18.7777C15.3928 18.4916 15.5611 18.1039 15.5625 17.6992C15.5625 16.8597 14.8448 16.1942 13.9688 16.1942Z" fill="#04B6F0"/>
</svg>
