<svg width="24" height="23" viewBox="0 0 24 23" fill="none" xmlns="http://www.w3.org/2000/svg">
<g clip-path="url(#clip0_4097_83)">
<g clip-path="url(#clip1_4097_83)">
<path d="M11.914 0C5.82 0 6.2 2.656 6.2 2.656L6.207 5.408H12.021V6.234H3.9C3.9 6.234 0 5.789 0 11.969C0 18.149 3.403 17.929 3.403 17.929H5.433V15.062C5.433 15.062 5.324 11.642 8.783 11.642H14.549C14.549 11.642 17.789 11.694 17.789 8.494V3.202C17.789 3.202 18.281 0 11.914 0ZM8.708 1.85C9.286 1.85 9.754 2.32 9.754 2.902C9.754 3.483 9.286 3.953 8.708 3.953C8.129 3.953 7.662 3.483 7.662 2.902C7.662 2.32 8.129 1.85 8.708 1.85Z" fill="#256FA7"/>
<path d="M12.087 24C18.179 24 17.799 21.344 17.799 21.344L17.792 18.592H11.978V17.766H20.101C20.101 17.766 24.001 18.211 24.001 12.031C24.001 5.85104 20.597 6.07104 20.597 6.07104H18.567V8.93804C18.567 8.93804 18.676 12.358 15.217 12.358H9.452C9.452 12.358 6.212 12.306 6.212 15.506V20.798C6.212 20.798 5.72 24 12.087 24ZM15.293 22.15C14.714 22.15 14.247 21.68 14.247 21.098C14.247 20.517 14.714 20.047 15.293 20.047C15.871 20.047 16.339 20.517 16.339 21.098C16.339 21.68 15.871 22.15 15.293 22.15Z" fill="#ECC439"/>
</g>
</g>
<defs>
<clipPath id="clip0_4097_83">
<rect width="24" height="23" fill="white"/>
</clipPath>
<clipPath id="clip1_4097_83">
<rect width="24" height="24" fill="white"/>
</clipPath>
</defs>
</svg>
